<svg width="154" height="67" viewBox="0 0 154 67" fill="none" xmlns="http://www.w3.org/2000/svg">
<path d="M15.548 17.576H14.924C11.8387 17.576 9.42933 18.356 7.696 19.916C5.99733 21.4413 5.148 24.1627 5.148 28.08C5.148 29.3627 5.26933 30.264 5.512 30.784C5.75467 31.2693 5.876 31.5467 5.876 31.616C4.004 31.616 2.6 31.2347 1.664 30.472C0.762667 29.6747 0.312 28.3747 0.312 26.572C0.312 24.1107 0.918667 21.8747 2.132 19.864C3.34533 17.8187 5.26933 16.172 7.904 14.924C10.5733 13.676 13.9533 13.052 18.044 13.052C20.332 13.052 22.7933 13.26 25.428 13.676C27.6467 14.0573 29.6227 14.248 31.356 14.248C33.5747 14.248 35.5853 13.884 37.388 13.156C37.3187 15.4093 36.7467 17.0733 35.672 18.148C34.5973 19.2227 33.0027 19.76 30.888 19.76C29.7787 19.76 28.6693 19.6733 27.56 19.5C26.4507 19.3267 24.8733 19.032 22.828 18.616L15.652 52H8.164L15.548 17.576ZM32.4712 52.312C29.9058 52.312 27.9125 51.6533 26.4912 50.336C25.0698 48.984 24.3592 46.8867 24.3592 44.044C24.3592 41.652 24.8272 39.0173 25.7632 36.14C26.6992 33.2627 28.2245 30.784 30.3392 28.704C32.4538 26.5893 35.1405 25.532 38.3992 25.532C42.2125 25.532 44.1192 27.196 44.1192 30.524C44.1192 32.4653 43.5645 34.2507 42.4552 35.88C41.3458 37.5093 39.8725 38.8267 38.0352 39.832C36.1978 40.8027 34.2392 41.3573 32.1592 41.496C32.0898 42.536 32.0552 43.2293 32.0552 43.576C32.0552 45.2747 32.3498 46.436 32.9392 47.06C33.5285 47.6493 34.4818 47.944 35.7992 47.944C37.6712 47.944 39.2658 47.5107 40.5832 46.644C41.9352 45.7773 43.4085 44.46 45.0032 42.692H46.7712C42.9232 49.1053 38.1565 52.312 32.4712 52.312ZM32.5752 39C33.8578 38.9307 35.0712 38.48 36.2152 37.648C37.3938 36.816 38.3298 35.7587 39.0232 34.476C39.7512 33.1933 40.1152 31.8413 40.1152 30.42C40.1152 28.9987 39.6818 28.288 38.8152 28.288C37.5672 28.288 36.3365 29.38 35.1232 31.564C33.9445 33.748 33.0952 36.2267 32.5752 39ZM50.0362 52.312C48.3722 52.312 47.0202 51.792 45.9802 50.752C44.9749 49.6773 44.4722 48.0827 44.4722 45.968C44.4722 45.1013 44.6109 43.9747 44.8882 42.588L50.4522 16.536L58.1482 15.496L52.1682 43.576C52.0295 44.096 51.9602 44.5987 51.9602 45.084C51.9602 46.4707 52.6709 47.164 54.0922 47.164C54.7162 47.164 55.2709 47.06 55.7562 46.852C55.6175 48.5853 54.9935 49.9373 53.8842 50.908C52.8095 51.844 51.5269 52.312 50.0362 52.312ZM69.0162 28.808H66.1042C65.1335 28.808 64.4055 28.86 63.9202 28.964C63.4695 29.068 63.2442 29.2933 63.2442 29.64C63.2442 29.7093 63.3309 29.796 63.5042 29.9C63.7122 29.9693 63.8162 30.264 63.8162 30.784C63.8162 31.6853 63.5389 32.3787 62.9842 32.864C62.4295 33.3147 61.7709 33.54 61.0082 33.54C60.3495 33.54 59.7775 33.3493 59.2922 32.968C58.8415 32.552 58.6162 31.98 58.6162 31.252C58.6162 30.524 58.8589 29.744 59.3442 28.912C59.8642 28.08 60.5749 27.3867 61.4762 26.832C62.4122 26.2773 63.4695 26 64.6482 26H78.0122L65.2722 47.996C65.4802 47.996 65.8615 48.0307 66.4162 48.1C67.5949 48.2387 68.5309 48.308 69.2242 48.308C70.7149 48.308 71.5295 47.9613 71.6682 47.268C71.3562 47.2333 71.1135 47.1293 70.9402 46.956C70.7669 46.748 70.6802 46.488 70.6802 46.176C70.6802 45.6213 70.9402 45.1187 71.4602 44.668C71.9802 44.1827 72.6909 43.94 73.5922 43.94C74.3549 43.94 74.9269 44.1653 75.3082 44.616C75.6895 45.0667 75.8802 45.6733 75.8802 46.436C75.8802 47.268 75.6202 48.1173 75.1002 48.984C74.5802 49.8507 73.8349 50.5787 72.8642 51.168C71.8935 51.7227 70.7842 52 69.5362 52H55.7562L69.0162 28.808ZM86.684 23.192C85.54 23.192 84.5693 22.7933 83.772 21.996C82.9747 21.1987 82.576 20.228 82.576 19.084C82.576 17.94 82.9747 16.9693 83.772 16.172C84.5693 15.34 85.54 14.924 86.684 14.924C87.828 14.924 88.7987 15.34 89.596 16.172C90.428 16.9693 90.844 17.94 90.844 19.084C90.844 20.228 90.428 21.1987 89.596 21.996C88.7987 22.7933 87.828 23.192 86.684 23.192ZM83.148 52.312C81.484 52.312 80.132 51.792 79.092 50.752C78.0867 49.712 77.584 48.152 77.584 46.072C77.584 45.2053 77.7227 44.0787 78 42.692L81.536 26H89.024L85.28 43.68C85.1413 44.2 85.072 44.7547 85.072 45.344C85.072 46.0373 85.228 46.54 85.54 46.852C85.8867 47.1293 86.4413 47.268 87.204 47.268C88.2093 47.268 89.1453 46.852 90.012 46.02C90.8787 45.1533 91.5027 44.044 91.884 42.692H94.068C92.7853 46.436 91.1387 48.984 89.128 50.336C87.1173 51.6533 85.124 52.312 83.148 52.312ZM95.3993 26H102.887L102.211 29.224C103.39 28.184 104.447 27.3867 105.383 26.832C106.354 26.2773 107.394 26 108.503 26C109.613 26 110.479 26.3813 111.103 27.144C111.762 27.9067 112.091 28.8253 112.091 29.9C112.091 30.9053 111.762 31.7893 111.103 32.552C110.445 33.3147 109.526 33.696 108.347 33.696C107.585 33.696 107.065 33.5227 106.787 33.176C106.545 32.7947 106.354 32.2573 106.215 31.564C106.111 31.1133 106.007 30.784 105.903 30.576C105.799 30.368 105.609 30.264 105.331 30.264C104.603 30.264 103.979 30.42 103.459 30.732C102.974 31.0093 102.333 31.512 101.535 32.24L97.3753 52H89.8873L95.3993 26Z" fill="#FDFDFD"/>
<path d="M140.072 23.5604C141.783 23.8976 143.355 24.7428 144.588 25.988C145.821 27.2331 146.658 28.8215 146.992 30.5498L140.072 23.5604ZM140.072 16.4824C143.627 16.8813 146.942 18.4893 149.473 21.0424C152.004 23.5955 153.601 26.9419 154 30.5321L140.072 16.4824ZM152.248 44.6526V49.961C152.25 50.4538 152.15 50.9416 151.955 51.3932C151.759 51.8447 151.472 52.25 151.113 52.5832C150.753 52.9163 150.329 53.17 149.867 53.3279C149.404 53.4857 148.915 53.5444 148.429 53.5C143.037 52.9084 137.859 51.0478 133.309 48.0677C129.076 45.3509 125.487 41.7262 122.797 37.4508C119.836 32.8346 117.993 27.5788 117.418 22.1094C117.374 21.6201 117.432 21.1269 117.587 20.6613C117.742 20.1957 117.992 19.7678 118.32 19.4049C118.648 19.0421 119.047 18.7522 119.492 18.5536C119.937 18.3551 120.418 18.2524 120.905 18.2519H126.161C127.011 18.2435 127.835 18.5475 128.48 19.1075C129.125 19.6675 129.546 20.4451 129.665 21.2954C129.886 22.9942 130.298 24.6623 130.891 26.2677C131.127 26.901 131.178 27.5893 131.038 28.251C130.898 28.9128 130.574 29.5202 130.103 30.0013L127.878 32.2485C130.372 36.6785 134.003 40.3465 138.39 42.8654L140.615 40.6182C141.091 40.1424 141.692 39.8146 142.348 39.6734C143.003 39.5323 143.684 39.5838 144.311 39.8219C145.901 40.421 147.553 40.8365 149.235 41.0605C150.086 41.1818 150.863 41.6148 151.418 42.2771C151.974 42.9394 152.269 43.7848 152.248 44.6526Z" fill="#FDFDFD"/>
</svg>
